<svg preserveAspectRatio="xMidYMid meet" id="comp-kcdl7bxasvgcontent" data-bbox="61.25 20.36 1508.82 312.06" viewBox="61.25 20.36 1508.82 312.06" xmlns="http://www.w3.org/2000/svg" data-type="color" role="img" aria-labelledby="comp-kcdl7bxa-svgtitle">
    <title id="comp-kcdl7bxa-svgtitle"></title>
    <g>
        <path d="M654.69 148.35c0-22.7-13.42-46.95-51.12-46.95h-35.76v-.09h-11.15c-6.28 0-10.34 3.9-10.34 9.93v121.2c0 5.87 4.52 10.14 10.75 10.14 6.33 0 10.75-4.17 10.75-10.14v-46.2c7.95 3.73 17.17 5.62 27.45 5.62.99 0 1.99-.01 2.98-.04l31.49 44.68c1.84 2.6 3.76 5.28 7.83 5.97.59.1 1.2.15 1.79.15 5.17 0 10.03-3.94 10.85-8.79.58-3.4-1-6.18-2.79-8.71l-26.75-36.6c33.62-9.93 34.02-38.91 34.02-40.17zm-59.42 23.08c-7.84 0-14.58-1.43-20.04-4.25-4.57-2.36-7.41-7.06-7.41-12.25v-33.07h35.76c20.64 0 30.67 8.67 30.67 26.49-.01.95-.46 23.08-38.98 23.08z" fill="#0073df" data-color="1"></path>
        <path d="M952.97 101.32H846.83c-7.11 0-11.35 3.86-11.35 10.35 0 6.21 4.17 9.92 11.15 9.92h42.62v110.87c0 5.87 4.52 10.14 10.75 10.14 6.22 0 10.75-4.26 10.75-10.14V121.59h42.42c6.98 0 11.15-3.79 11.15-10.14 0-6.25-4.35-10.13-11.35-10.13z" fill="#0073df" data-color="1"></path>
        <path d="M1078.96 221.11h-67.43c-.36 0-.66-.3-.66-.66v-39.36h47.93c7.11 0 11.36-3.79 11.36-10.14 0-6.25-4.35-10.14-11.36-10.14h-47.93v-38.55c0-.36.3-.66.66-.66h66.82c6.98 0 11.15-3.71 11.15-9.92 0-6.48-4.25-10.35-11.36-10.35h-77.41c-7.11 0-11.36 3.86-11.36 10.35v119.57c0 3.79 1.48 10.14 11.36 10.14h78.23c10.07 0 11.15-7.09 11.15-10.14 0-6.36-4.17-10.14-11.15-10.14z" fill="#0073df" data-color="1"></path>
        <path d="M1401.75 164.67c-.22-.03-.56-.05-.97-.05-9.39 0-9.87 10.58-9.87 12.7 0 2.51 0 4.1.01 5.07 0 .43 0 .88.05 1.33v24.37c-10.23 8.76-27.9 14.84-43.24 14.84-25.43 0-51.18-17.93-51.18-52.2 0-33.11 25.63-50.97 49.76-50.97 15.62 0 25.24 5.9 31.61 9.8l1.19.73c2.85 1.83 5.14 3.13 8.75 3.13 5.4 0 9.32-4.34 9.32-10.34 0-2.96-1.39-5.51-4.67-8.55-6.06-5.41-23.39-15.63-45.6-15.63-41.66 0-73.09 31.15-73.09 72.47s31.68 72.47 73.69 72.47c26.1 0 43.42-10.12 55.61-18.96 3.57-2.73 8.31-7.15 8.31-14v-33.61c.02-6.59-.73-12.5-9.68-12.6z" fill="#0073df" data-color="1"></path>
        <path d="M465.73 101.32H425.6c-6.28 0-10.34 3.9-10.34 9.93v121.2c0 5.87 4.52 10.14 10.75 10.14 6.33 0 10.75-4.17 10.75-10.14v-45.4c4.26 2.95 14.58 8.97 28.36 8.97 31.33 0 54.95-20.16 54.95-46.87 0-27.71-22.85-47.83-54.34-47.83zm-1.18 75.58c-13.98-.99-21.03-5.65-24.48-9.38-2.14-2.31-3.32-5.39-3.32-8.66v-36.6c0-.36.3-.66.66-.66h27.7c15.69 0 32.44 7.29 32.44 27.76 0 17.23-12.33 27.53-33 27.54z" fill="#0073df" data-color="1"></path>
        <path d="M1228.75 100.1c-6.23 0-10.75 4.26-10.75 10.14v95.74l-71.16-96.9c-3.84-5.25-7.11-8.98-14.24-8.98h-1.43c-6.05 0-12.17 4.67-12.17 13.6v118.77c0 5.78 4.62 10.14 10.75 10.14 6.23 0 10.75-4.26 10.75-10.14v-97.03l70.32 97.55c4.12 5.77 8.37 9.61 15.69 9.61h.61c7.06 0 12.38-5.24 12.38-12.17V110.24c-.01-5.77-4.63-10.14-10.75-10.14z" fill="#0073df" data-color="1"></path>
        <path d="M1568.81 226.82l-47.68-113.9c-2.36-5.5-6.65-12.82-16.62-12.82h-.81c-9.83 0-13.83 6.87-16.21 12.81l-48.08 111.63c-1.34 3.14-2.08 5.33-2.08 7.91 0 5.87 4.35 10.14 10.34 10.14 6.05 0 8.76-4.03 10.31-7.14l12.68-30.14h65.88l12.69 30.19c1.95 4.45 5.71 7.1 10.09 7.1 6.43 0 10.75-4.08 10.75-10.14-.01-1.42-.48-3.56-1.26-5.64zm-89.51-41.77l24.78-58.73 24.26 58.73h-49.04z" fill="#0073df" data-color="1"></path>
        <path d="M803.63 120.56l-31.16-18c-5.83-3.37-12.49-5.15-19.26-5.15s-13.43 1.78-19.27 5.15l-31.16 18c-11.88 6.87-19.26 19.65-19.26 33.38v35.99c0 13.72 7.38 26.51 19.27 33.38l31.16 17.99a38.527 38.527 0 0019.26 5.15h.01c6.77 0 13.43-1.78 19.26-5.15l31.16-17.99c11.88-6.87 19.27-19.65 19.27-33.38v-35.99c-.01-13.74-7.4-26.53-19.28-33.38zm-1.23 69.35c0 6.42-3.46 12.42-9.02 15.63l-31.16 17.99a18.127 18.127 0 01-9.02 2.41c-3.17 0-6.29-.83-9.02-2.41l-31.16-17.99c-5.56-3.21-9.02-9.21-9.02-15.63v-35.99c0-6.42 3.45-12.42 9.02-15.63l31.16-18c2.73-1.57 5.85-2.41 9.02-2.41s6.29.83 9.02 2.41l31.16 17.99c5.56 3.21 9.02 9.21 9.02 15.63v36z" fill="#0073df" data-color="1"></path>
        <path d="M187.7 74.26l-40.6 23.83a5.73 5.73 0 00-2.85 4.97v147.72c0 2.07 1.09 3.97 2.89 5.02l40.6 23.27c3.85 2.22 8.64-.59 8.64-5.02V79.26c.01-4.48-4.83-7.26-8.68-5z" fill="#0073df" data-color="1"></path>
        <path d="M295.02 169.6v-40.09c0-1.97-1-3.8-2.65-4.84L215 74.89c-3.85-2.48-8.89.29-8.89 4.84v43.54c0 2.02 1.07 3.92 2.8 4.94l77.37 46.3c3.85 2.35 8.74-.43 8.74-4.91z" fill="#5ab947" data-color="2"></path>
        <path d="M252.81 219.16l30.83-24.63c3.13-2.5 2.82-7.4-.65-9.47l-32.01-19.01a5.765 5.765 0 00-6.54.46l-30.81 24.63c-3.17 2.5-2.82 7.4.65 9.47l32.01 19.01c2.04 1.22 4.64 1.04 6.52-.46z" fill="#ffa300" data-color="3"></path>
        <path d="M321.78 82.96l-98.69-56.97c-6.39-3.68-13.67-5.63-21.06-5.63s-14.67 1.95-21.06 5.63L82.31 82.96c-12.99 7.49-21.06 21.47-21.06 36.46v113.94c0 15 8.07 28.97 21.06 36.46l98.67 56.97c6.39 3.68 13.67 5.63 21.06 5.63s14.67-1.95 21.06-5.63l98.67-56.97c12.99-7.49 21.06-21.47 21.06-36.46V119.43c-.01-15-8.07-28.96-21.05-36.47zm7.66 36.49V233.4c0 10.21-5.51 19.75-14.36 24.87l-98.67 56.97c-4.33 2.51-9.3 3.84-14.36 3.84-5.05 0-10.01-1.32-14.34-3.84l-98.67-56.97c-8.86-5.11-14.36-14.63-14.36-24.87V119.44c0-10.21 5.51-19.75 14.36-24.87l98.67-56.97c4.33-2.5 9.29-3.81 14.34-3.81 5.04 0 10.01 1.32 14.36 3.84l98.67 56.97c8.87 5.08 14.36 14.61 14.36 24.85z" fill="#0073df" data-color="1"></path>
    </g>
</svg>
